**ABCDEFGHIJKLMNOPQRSTUVWXYZabcdefghijklmnopqrstuvwxyz**************************
**PARASOLID !"#$%&'()*+,-./:;<=>?@[\]^_`{|}~0123456789**************************
**PART1;
MC=AMD64;
MC_MODEL=Intel64 Family 6 Model 158 Stepping 9, GenuineIntel;
MC_ID=unknown;
OS=Windows_NT;
OS_RELEASE=unknown;
FRU=Parasolid Version 30.0, build 298, 12-15-2017;
APPL=SOLIDWORKS 2018-2018134;
SITE=;
USER=unknown;
FORMAT=text;
GUISE=transmit;
KEY=92147A033;
FILE=92147A033.x_t;
DATE=Thu Feb  7 08:19:13 2019;
**PART2;
SCH=SCH_3000298_30000;
USFLD_SIZE=0;
**PART3;
**END_OF_HEADER*****************************************************************
T51 : TRANSMIT FILE created by modeller version 300029823 SCH_3000298_30000_1300
6205 0 12 33 CCCCCCI4 mesh1006 0 I8 polyline1008 0 CCCCCCCDI5 owner1040 0 CCCCCC
I13 boundary_mesh1006 0 I17 boundary_polyline1008 0 CCCA16 index_map_offset0 0 1
 dA9 index_map82 0 A17 node_id_index_map82 0 A20 schema_embedding_map82 0 A5 chi
ld12 0 A14 lowest_node_id0 0 1 dZ1 186 2 3 0 0 0 0 0 0 1e3 1e-8 0 4 0 1 0 1 1 5
 6 7 8 0 0 9 10 11 0 0 0 0 0 0 81 255 3 2 159 12 1 0 0 0 0 13 14 0 70 11 CI9 lis
t_type0 0 1 uI10 notransmit0 0 1 lCCCDCCDI12 finger_index0 0 1 dI12 finger_block
1012 0 CZ3 0 4 T1 0 0 3 20 1 15 15 13 255 5 86 0 1 0 16 0 0 17 0 50 255 6 94 0 1
8 19 0 20 +.000479479400355295 .00762080615947289 -.0003180409193070825 .9980265
73099672 -.062792987092796 1260507619989018e-20 .0627929870977846 .9980265731789
6 0 137 255 7 102 0 1 21 0 22 -6 23 0 ?29 255 8 84 0 11 24 0 .000693002242818102
 .0110145206696183 -.000318040919341916 19 8 CCCCCCCA5 owner12 0 Z9 92 0 1 17 0
 25 V0 16 255 10 60 0 1e-6 26 0 27 0 0 0 1 18 255 11 82 0 28 0 29 8 1e-6 1 17 25
5 28 0 30 31 32 11 33 34 0 35 +18 29 79 0 36 11 37 24 ?1 17 36 0 38 39 40 29 41
 42 0 33 +18 37 76 0 43 29 44 45 1025505131993136e-21 1 29 24 81 0 29 45 8 0 .01
10363 .003175 29 45 78 0 37 46 24 .000693027665288366 .01101451907005004 -.00349
3039634373045 29 46 75 0 44 47 45 0 .0110363 0 18 44 73 0 40 37 48 46 1025505131
993136e-21 1 29 47 72 0 48 49 46 0 .0065024 .003175 18 48 70 0 50 44 51 47 10150
6280990847e-20 1 29 49 69 0 51 52 47 .0004083200975881155 .00648956704701326 -.0
003180396343556265 18 51 67 0 53 48 54 49 101506280990847e-20 1 29 52 66 0 54 55
 49 .0004083350758715975 .00648956610458765 -.00349303834940417 18 54 64 0 56 51
 57 52 1e-6 1 29 55 63 0 57 0 52 0 .0065024 0 18 57 61 0 58 54 0 55 ?1 17 58 0 3
8 40 39 57 50 59 0 60 +15 255 38 89 0 39 16 0 17 40 0 38 36 58 44 61 62 0 63 +17
 39 0 38 58 36 48 32 27 0 0 +17 50 0 64 65 60 48 58 59 0 66 -16 59 37 0 ?58 67 0
 68 0 0 1 17 60 0 64 50 56 57 69 70 0 61 -15 64 5 0 50 71 0 17 56 0 64 60 65 54
 53 67 72 69 -17 69 0 73 74 61 54 60 70 0 75 +16 70 41 0 ?69 76 67 77 0 0 1 17 6
1 0 73 69 63 57 40 62 0 0 -15 73 14 0 61 78 0 17 63 0 73 61 74 44 43 79 80 41 -1
6 62 45 0 ?40 79 76 81 0 0 1 16 79 48 0 1025505131993136e-21 43 82 62 0 0 0 1 16
 76 44 0 101506280990847e-20 65 62 70 0 0 0 1 133 255 81 46 0 62 83 84 0 +84 0 .
0065024 0 0 .0110363 0 0 1 134 255 83 43 0 1 77 81 85 +86 87 134 84 47 0 1 81 88
 89 +90 91 133 88 51 0 42 84 92 0 +92 0 .0110363 0 0 .0110363 .003175 0 1 141 25
5 89 81 89 89 84 136 255 90 1 2 4 2 5 FFT1 93 94 95 135 255 91 2 0 45 255 8 93 0
 .0065024 0 1 0 .0110363 0 1 127 255 2 94 2 2 128 255 2 95 0 1 16 42 50 0 ?36 34
 82 88 0 0 1 134 92 52 0 1 88 96 97 +98 99 133 96 54 0 34 92 100 0 +100 0 .01103
63 .003175 .000693002242818102 .01101452066961832 -.0003180409193419165 0 .98992
2815363835 141 97 88 97 97 92 136 98 1 2 4 2 5 FFT1 101 102 103 135 99 2 0 45 8
 101 0 .0110363 0 1 0 .0110363 .003175 1 127 2 102 2 2 128 2 103 0 1 16 34 53 0
 ?28 104 42 96 0 0 1 134 100 55 0 1 96 105 106 +107 108 133 105 58 0 27 100 109
 0 +109 0 .0110363 .003175 0 .0065024 .003175 0 1 141 106 96 106 106 100 136 107
 2 25 4 13 5 FFT8 110 111 112 135 108 2 113 184 255 113 0 0 0 0 0 -1 0 .0110363
 .003175 -0 .989922815363835 .00352777777777778 1e-6 45 100 110 0 .0110363 .0031
75 1 -.00285640462746495 .01066024719667404 .00292483234576095 .965925826289068
 -.00551815 .0095577161637862 .00288101851851852 1 -.00780384256920909 .00780384
256920909 .002640868040347265 .965925826289068 -.0095577161637862 .00551815 .002
587037037037035 1 -.01066024719667404 .00285640462746495 .00235690373493358 .965
925826289068 -.0110363 675778473471497e-33 .002293055555555555 1 -.0106602471966
7404 -.00285640462746495 .002072939429519895 .965925826289068 -.0095577161637862
 -.00551815 .001999074074074075 1 -.00780384256920909 -.00780384256920909 .00178
897512410621 .965925826289068 -.00551815 -.0095577161637862 .001705092592592595
 1 -.002856404627464955 -.01066024719667404 .00150501081869253 .965925826289068
 -1351556946942992e-33 -.0110363 .00141111111111111 1 .002856404627464945 -.0106
6024719667404 .001221046513278842 .965925826289068 .00551815 -.0095577161637862
 .00111712962962963 1 .00780384256920909 -.0078038425692091 .000937082207865159
 .965925826289068 .0095577161637862 -.00551815 .000823148148148148 1 .0106602471
9667404 -.00285640462746496 .000653117902451474 .965925826289068 .0110363 -20273
3542041449e-32 .000529166666666667 1 .01066024719667404 .002856404627464945 .000
3691535970377895 .965925826289068 .0095577161637862 .00551815 .00023518518518518
5 1 .0078038425692091 .00780384256920909 85189291624105e-18 .965925826289068 .00
551815 .0095577161637862 -587962962962964e-19 1 .00317827942234689 .010526922291
2479 -.000181847917213818 .970046287166786 .000687981872426248 .0109347273153784
4 -.000315736910615524 .992755621725785 127 13 111 3 2 2 2 2 2 2 2 2 2 2 2 3 128
 13 112 0 .0833333333333333 .1666666666666665 .25 .3333333333333335 .41666666666
66665 .5 .583333333333333 .666666666666667 .75 .833333333333333 .916666666666667
 .989922815363835 16 27 57 0 ?39 10 104 105 0 0 1 134 109 59 0 1 105 114 115 +11
6 117 133 114 95 0 26 109 118 0 +118 .0004083051193046335 .00648956798943887 -.0
00318040919307083 .000693002243507279 .01101452066957494 -.000318040919307082 1
 0 141 115 105 115 115 109 136 116 1 2 4 2 5 FFT1 119 120 121 135 117 2 0 45 8 1
19 0 .0110363 .003175 1 0 .0065024 .003175 1 127 2 120 2 2 128 2 121 0 1 17 26 0
 122 123 53 11 31 10 114 0 +137 118 96 0 1 114 124 125 -6 126 0 ?133 124 97 0 53
 118 127 0 +127 .000408345061406144 .00648956547632628 -.003493038349278055 .000
408305119267958 .00648956798937176 -.0003180383497825225 1 0 141 125 114 125 125
 118 134 126 0 0 0 0 0 0 +128 129 136 128 1 2 2 2 5 FFF1 130 131 132 135 129 2 0
 45 4 130 .003400425 650521303439623e-33 -.001133475 -216840537877451e-33 127 2
 131 2 2 128 2 132 0 1 17 53 0 122 26 75 51 56 67 124 65 +137 127 98 0 1 124 133
 134 -6 135 0 ?133 133 99 0 75 127 136 0 +136 .00069304218560576 .01101451815641
416 -.003493038349541865 .000408345061406144 .00648956547632628 -.00349303834927
8055 1 0 141 134 124 134 134 127 134 135 0 0 0 0 0 0 +137 138 136 137 1 2 2 2 5
 FFF1 139 140 141 135 138 2 0 45 4 139 -.001133475000069276 256952456023497e-23
 -.00113347500006928 -.003174997430223205 127 2 140 2 2 128 2 141 0 1 17 75 0 12
2 53 123 54 74 82 133 0 +137 136 100 0 1 133 21 142 -6 143 0 ?133 21 101 0 123 1
36 7 0 +7 .000693002243507279 .01101452066957496 -.0003180409193419075 .00069304
2185645465 .01101451815652948 -.00349304091883744 1 0 141 142 133 142 142 136 13
4 143 0 0 0 0 0 0 +144 145 136 144 1 2 2 2 5 FFF1 146 147 148 135 145 2 0 45 4 1
46 -.00113347500006928 -.003174997430223205 .003400424999882415 -.00317499743048
7015 127 2 147 2 2 128 2 148 0 1 17 123 0 122 75 26 37 35 104 21 0 +15 122 87 0
 26 18 0 17 35 0 149 33 43 11 123 104 150 26 -16 104 56 0 1e-6 123 27 34 0 0 0 1
 15 149 23 0 41 151 0 17 33 0 149 41 35 29 28 34 0 32 -17 43 0 149 35 41 37 63 7
9 152 74 +133 150 24 0 35 153 154 0 +154 .000693002242818102 .0110145206696183 -
.003493040919341915 .000693002242818102 .0110145206696183 -.000318040919341916 1
 0 137 153 18 0 1 155 150 156 -157 158 0 ?137 154 25 0 1 150 152 159 -160 161 0
 ?133 152 26 0 43 154 162 0 +162 0 .0110363 0 .00069305308775863 .01101451747048
178 -.00349303834940417 1 0 141 159 150 159 159 154 124 255 160 20 0 151 157 163
 164 +165 166 134 161 0 0 0 0 0 0 +167 168 136 167 1 2 2 2 5 FFF1 169 170 171 13
5 168 2 0 45 4 169 1 .989922815363835 0 .989922815363835 127 2 170 2 2 128 2 171
 0 1 14 255 151 19 172 ?78 173 149 5 160 -0 0 173 78 25 124 157 11 0 78 174 160
 175 +176 177 124 163 29 0 173 160 19 178 +179 180 141 164 154 181 181 160 126 2
55 165 FF1 2 2 25 5 5 2 13 TFF12 4 182 183 184 185 186 125 255 166 0 1 0 .989922
815363835 0 1 0 .989922815363835 2 BBBBBBBBH???187 0 0 0 163 255 187 0 0 0 0 0 -
1 -0 .989922815363835 .00352777777777778 ?1e-6 45 200 182 0 .0110363 0 1 -.00285
640462746495 .01066024719667404 -.0001419821527068422 .965925826289068 -.0055181
5 .0095577161637862 -.0002939814814814815 1 -.00780384256920909 .007803842569209
09 -.0004259464581205265 .965925826289068 -.0095577161637862 .00551815 -.0005879
62962962963 1 -.01066024719667404 .00285640462746495 -.000709910763534211 .96592
5826289068 -.0110363 675778473471497e-33 -.000881944444444445 1 -.01066024719667
404 -.00285640462746495 -.000993875068947896 .965925826289068 -.0095577161637862
 -.00551815 -.001175925925925926 1 -.00780384256920909 -.00780384256920909 -.001
27783937436158 .965925826289068 -.00551815 -.0095577161637862 -.0014699074074074
08 1 -.002856404627464955 -.01066024719667404 -.001561803679775265 .965925826289
068 -1351556946942992e-33 -.0110363 -.00176388888888889 1 .002856404627464945 -.
01066024719667404 -.00184576798518895 .965925826289068 .00551815 -.0095577161637
862 -.00205787037037037 1 .00780384256920909 -.0078038425692091 -.00212973229060
2635 .965925826289068 .0095577161637862 -.00551815 -.00235185185185185 1 .010660
24719667404 -.00285640462746496 -.00241369659601632 .965925826289068 .0110363 -2
02733542041449e-32 -.002645833333333335 1 .01066024719667404 .002856404627464945
 -.002697660901430005 .965925826289068 .0095577161637862 .00551815 -.00293981481
4814815 1 .0078038425692091 .00780384256920909 -.002981625206843685 .96592582628
9068 .00551815 .0095577161637862 -.003233796296296295 1 .00317827942234689 .0105
269222912479 -.003261744878968365 .970046287166786 .000687981872426248 .01093472
731537844 -.00346773600959489 .992755621725785 0 .0110363 .003175 1 -.0028564046
2746495 .01066024719667404 .00292483234576095 .965925826289068 -.00551815 .00955
77161637862 .00288101851851852 1 -.00780384256920909 .00780384256920909 .0026408
68040347265 .965925826289068 -.0095577161637862 .00551815 .002587037037037035 1
 -.01066024719667404 .00285640462746495 .00235690373493358 .965925826289068 -.01
10363 675778473471497e-33 .002293055555555555 1 -.01066024719667404 -.0028564046
2746495 .002072939429519895 .965925826289068 -.0095577161637862 -.00551815 .0019
99074074074075 1 -.00780384256920909 -.00780384256920909 .00178897512410621 .965
925826289068 -.00551815 -.0095577161637862 .001705092592592595 1 -.0028564046274
64955 -.01066024719667404 .00150501081869253 .965925826289068 -1351556946942992e
-33 -.0110363 .00141111111111111 1 .002856404627464945 -.01066024719667404 .0012
21046513278842 .965925826289068 .00551815 -.0095577161637862 .00111712962962963
 1 .00780384256920909 -.0078038425692091 .000937082207865159 .965925826289068 .0
095577161637862 -.00551815 .000823148148148148 1 .01066024719667404 -.0028564046
2746496 .000653117902451474 .965925826289068 .0110363 -202733542041449e-32 .0005
29166666666667 1 .01066024719667404 .002856404627464945 .0003691535970377895 .96
5925826289068 .0095577161637862 .00551815 .000235185185185185 1 .007803842569209
1 .00780384256920909 85189291624105e-18 .965925826289068 .00551815 .009557716163
7862 -587962962962964e-19 1 .00317827942234689 .0105269222912479 -.0001818479172
13818 .970046287166786 .000687981872426248 .01093472731537844 -.0003157369106155
24 .992755621725785 127 4 183 2 2 0 0 127 15 184 3 2 2 2 2 2 2 2 2 2 2 2 3 0 0 1
28 4 185 0 1 ??128 15 186 0 .0833333333333333 .1666666666666665 .25 .33333333333
33335 .4166666666666665 .5 .583333333333333 .666666666666667 .75 .83333333333333
3 .916666666666667 .989922815363835 ??141 181 162 164 164 160 137 162 27 0 1 152
 188 189 -160 190 0 ?133 188 33 0 66 162 191 0 +191 .0004083051193046335 .006489
56798943887 -.000318040919307083 0 .0065024 .003175 1 0 141 189 152 189 189 162
 134 190 0 0 0 0 0 0 +192 193 136 192 1 2 2 2 5 FFF1 194 195 196 135 193 2 0 45
 4 194 -2979241936514845e-31 .989922077600637 -2979241936514845e-31 0 127 2 195
 2 2 128 2 196 0 1 17 66 0 30 32 31 48 65 76 188 39 -137 191 34 0 1 188 197 198
 -163 199 0 ?133 197 35 0 31 191 200 0 +200 .000693002243507279 .011014520669574
94 -.000318040919307082 .0004083051193046335 .00648956798943887 -.00031804091930
7083 1 0 141 198 188 198 198 191 134 199 0 0 0 0 0 0 +201 202 136 201 1 2 2 2 5
 FFF1 203 204 205 135 202 2 0 45 4 203 1 0 1 .989922815353835 127 2 204 2 2 128
 2 205 0 1 17 31 0 30 66 28 51 26 10 197 0 -137 200 36 0 1 197 68 206 -163 207 0
 ?133 68 38 0 59 200 208 0 +208 0 .0065024 .003175 0 .0065024 0 0 1 141 206 197
 206 206 200 134 207 0 0 0 0 0 0 +209 210 136 209 1 2 2 2 5 FFF1 211 212 213 135
 210 2 0 45 4 211 1 .989922815353835 0 .989922815353835 127 2 212 2 2 128 2 213
 0 1 134 208 39 0 1 68 77 214 +215 216 133 77 42 0 70 208 83 0 +83 0 .0065024 0
 .0004083350758715975 .00648956610458765 -.00349303834940417 0 .989922077600637
 141 214 68 214 214 208 136 215 1 2 4 2 5 FFT1 217 218 219 135 216 2 0 45 8 217
 0 .0065024 .003175 1 0 .0065024 0 1 127 2 218 2 2 128 2 219 0 1 15 30 32 0 32 1
73 0 17 32 0 30 28 66 29 39 27 0 0 -14 173 28 220 ?151 18 30 5 163 -0 0 18 151 2
5 81 1 220 182 221 173 222 0 172 223 224 14 18 88 223 ?173 16 122 5 6 -0 0 16 17
3 25 13 25 91 0 0 0 0 0 0 9 71 14 71 1 225 ?0 78 64 5 174 -0 0 78 0 25 81 1 225
 184 221 71 226 0 223 227 228 14 78 10 227 ?71 151 73 5 157 -0 0 151 71 25 124 1
74 2 0 71 0 157 229 +230 231 141 229 232 233 233 174 126 230 FF1 2 2 27 5 5 2 14
 TFF11 4 234 235 236 237 238 125 231 0 1 0 .989922077600637 0 1 0 .9998212983766
43 2 BBBBBBBB????0 0 0 0 45 216 234 0 .0065024 .003175 1 -.00168294495887463 .00
628083609286204 .00292483234576095 .965925826289068 -.0032512 .00563124358556794
 .00288101851851852 1 -.00459789113398741 .00459789113398741 .002640868040347265
 .965925826289068 -.00563124358556794 .0032512 .002587037037037035 1 -.006280836
09286204 .001682944958874635 .00235690373493358 .965925826289068 -.0065024 39815
71673387875e-34 .002293055555555555 1 -.00628083609286204 -.00168294495887463 .0
02072939429519895 .965925826289068 -.00563124358556794 -.0032512 .00199907407407
4075 1 -.00459789113398741 -.00459789113398741 .00178897512410621 .9659258262890
68 -.0032512 -.00563124358556793 .00170509259259259 1 -.001682944958874635 -.006
28083609286204 .001505010818692525 .965925826289068 -796314334677575e-33 -.00650
24 .00141111111111111 1 .00168294495887463 -.00628083609286204 .0012210465132788
42 .965925826289068 .0032512 -.00563124358556794 .00111712962962963 1 .004597891
1339874 -.00459789113398741 .000937082207865158 .965925826289068 .00563124358556
793 -.0032512 .000823148148148147 1 .00628083609286204 -.001682944958874635 .000
653117902451473 .965925826289068 .0065024 -1194471502016362e-33 .000529166666666
666 1 .00628083609286204 .00168294495887463 .0003691535970377885 .96592582628906
8 .00563124358556794 .0032512 .000235185185185184 1 .00459789113398741 .00459789
113398741 851892916241042e-19 .965925826289068 .0032512 .00563124358556793 -5879
62962962972e-19 1 .00187260199015709 .00620227757830543 -.0001818466779600645 .9
70046588830842 .000405376755344276 .00644255026452142 -.0003157342138226035 .992
755164319384 .0002058532126621005 .00645510464175193 -.0003328508763259155 .9927
55164319384 632966997992458e-20 .00646765901898243 -.0003499675388292275 .992755
164319384 0 .0065024 0 1 -.00168294495887463 .00628083609286204 -.00014198215270
68422 .965925826289068 -.0032512 .00563124358556794 -.0002939814814814815 1 -.00
459789113398741 .00459789113398741 -.0004259464581205265 .965925826289068 -.0056
3124358556793 .0032512 -.000587962962962963 1 -.00628083609286204 .0016829449588
74635 -.000709910763534211 .965925826289068 -.0065024 3981571673387875e-34 -.000
881944444444445 1 -.00628083609286204 -.00168294495887463 -.000993875068947896 .
965925826289068 -.00563124358556794 -.0032512 -.001175925925925926 1 -.004597891
13398741 -.00459789113398741 -.00127783937436158 .965925826289068 -.0032512 -.00
563124358556793 -.001469907407407408 1 -.001682944958874635 -.00628083609286204
 -.001561803679775265 .965925826289068 -796314334677575e-33 -.0065024 -.00176388
888888889 1 .00168294495887463 -.00628083609286204 -.00184576798518895 .96592582
6289068 .0032512 -.00563124358556794 -.00205787037037037 1 .0045978911339874 -.0
0459789113398741 -.002129732290602635 .965925826289068 .00563124358556793 -.0032
512 -.00235185185185185 1 .00628083609286204 -.001682944958874635 -.002413696596
01632 .965925826289068 .0065024 -1194471502016362e-33 -.002645833333333335 1 .00
628083609286204 .00168294495887463 -.002697660901430005 .965925826289068 .005631
24358556794 .0032512 -.002939814814814815 1 .00459789113398741 .0045978911339874
1 -.002981625206843685 .965925826289068 .0032512 .00563124358556793 -.0032337962
96296295 1 .00187260199015709 .00620227757830543 -.00326174459749799 .9700465888
30842 .000405376755344276 .00644255026452142 -.00346773186053665 .99275516431938
4 .0002058532126621005 .00645510464175193 -.00348484852303996 .992755164319384 6
32966997992463e-20 .00646765901898243 -.003501965185543275 .992755164319384 127
 2 235 2 2 127 14 236 3 2 2 2 2 2 2 2 2 2 2 2 2 3 128 2 237 0 1 128 14 238 0 .08
33333333333333 .1666666666666665 .25 .3333333333333335 .4166666666666665 .5 .583
333333333333 .666666666666667 .75 .833333333333333 .916666666666667 .98992207760
0637 .999821298376643 137 232 7 0 1 72 239 240 -174 241 0 ?141 233 242 229 229 1
74 137 242 9 0 1 239 80 243 -174 244 0 ?133 239 8 0 65 232 242 0 +242 0 .0065024
 .003175 .000408305119302083 .00648956798950845 -.000318040919308871 1 0 133 80
 15 0 63 242 245 0 +245 .00069305308775863 .01101451747048176 -.0034930383494041
7 0 .0110363 0 1 0 141 243 239 243 243 242 134 244 0 0 0 0 0 0 +246 247 136 246
 1 2 2 2 5 FFF1 248 249 250 135 247 2 0 45 4 248 -236639792163849e-30 .989922815
353835 -236639792163849e-30 0 127 2 249 2 2 128 2 250 0 1 137 245 16 0 1 80 155
 251 -157 252 0 ?133 155 17 0 74 245 153 0 +153 .0004083350758715975 .0064895661
0458765 -.00349303834940417 .00069305308775863 .01101451747048176 -.003493038349
40417 1 0 141 251 80 251 251 245 134 252 0 0 0 0 0 0 +253 254 136 253 1 2 2 2 5
 FFF1 255 256 257 135 254 2 0 45 4 255 1 0 1 .989922077600637 127 2 256 2 2 128
 2 257 0 1 17 74 0 73 63 69 37 75 82 155 123 -16 82 49 0 1e-6 75 42 79 0 0 0 1 1
7 65 0 64 56 50 51 66 76 239 31 +133 72 6 0 56 0 232 0 +232 .0004083350758715975
 .00648956610458765 -.0003180383494041705 .0004083350758715975 .0064895661045876
5 -.00349303834940417 1 0 141 240 72 240 240 232 134 241 0 0 0 0 0 0 +258 259 13
6 258 1 2 2 2 5 FFF1 260 261 262 135 259 2 0 45 4 260 1 .989922077600637 0 .9899
22077600637 127 2 261 2 2 128 2 262 0 1 81 1 227 185 221 78 263 0 225 264 265 80
 255 1 221 266 267 9000 1 1 1 1 1 1 1 1 0 FFFFTFTFFFFFFF1 81 1 263 165 268 78 0
 227 269 226 270 81 1 264 186 221 16 271 0 227 0 272 82 255 1 265 2142371944 14
 16 90 264 ?18 0 38 5 19 +0 0 0 18 25 81 1 271 161 268 16 0 264 0 273 274 82 1 2
72 -2146303896 80 1 268 0 275 8001 0 0 0 0 3 5 0 0 0 FFFFTFTFFFFFFF2 81 1 273 16
2 268 18 0 223 271 222 276 83 255 3 274 .752941176470588 .752941176470588 .75294
1176470588 81 1 223 183 221 18 273 0 220 225 277 81 1 222 163 268 173 0 220 273
 269 278 83 3 276 .752941176470588 .752941176470588 .752941176470588 81 1 269 16
4 268 151 0 172 222 263 279 83 3 278 .752941176470588 .752941176470588 .75294117
6470588 81 1 172 181 221 151 269 0 0 220 280 83 3 279 .752941176470588 .75294117
6470588 .752941176470588 82 1 280 2143354984 82 1 277 -2146434968 79 255 15 275
 SDL/TYSA_COLOUR50 19 93 0 16 163 6 0 +0 .00876935 .003175 1 0 0 0 0 -1 81 1 226
 166 268 71 0 225 263 0 281 83 3 270 .752941176470588 .752941176470588 .75294117
6470588 83 3 281 .752941176470588 .752941176470588 .752941176470588 79 14 267 SW
EntUnchanged82 1 228 2141323368 82 1 224 2144338024 141 178 191 282 282 163 126
 179 FF1 2 2 25 5 5 2 13 TFF12 4 283 284 285 286 287 125 180 0 1 0 .989922815353
835 0 1 0 .989922815353835 2 BBBBBBBBH???288 0 0 0 163 288 0 0 0 0 0 -1 -0 .9899
22815353835 .00352777777777778 ?1e-6 45 200 283 0 .0110363 .003175 1 -.002856404
62746495 .01066024719667404 .00292483234576095 .965925826289068 -.00551815 .0095
577161637862 .00288101851851852 1 -.00780384256920909 .00780384256920909 .002640
868040347265 .965925826289068 -.0095577161637862 .00551815 .002587037037037035 1
 -.01066024719667404 .00285640462746495 .00235690373493358 .965925826289068 -.01
10363 675778473471497e-33 .002293055555555555 1 -.01066024719667404 -.0028564046
2746495 .002072939429519895 .965925826289068 -.0095577161637862 -.00551815 .0019
99074074074075 1 -.00780384256920909 -.00780384256920909 .00178897512410621 .965
925826289068 -.00551815 -.0095577161637862 .001705092592592595 1 -.0028564046274
64955 -.01066024719667404 .00150501081869253 .965925826289068 -1351556946942992e
-33 -.0110363 .00141111111111111 1 .002856404627464945 -.01066024719667404 .0012
21046513278842 .965925826289068 .00551815 -.0095577161637862 .00111712962962963
 1 .00780384256920909 -.0078038425692091 .000937082207865159 .965925826289068 .0
095577161637862 -.00551815 .000823148148148148 1 .01066024719667404 -.0028564046
2746496 .000653117902451474 .965925826289068 .0110363 -202733542041449e-32 .0005
29166666666667 1 .01066024719667404 .002856404627464945 .0003691535970377895 .96
5925826289068 .0095577161637862 .00551815 .000235185185185185 1 .007803842569209
1 .00780384256920909 85189291624105e-18 .965925826289068 .00551815 .009557716163
7862 -587962962962964e-19 1 .0031782794226663 .01052692229111558 -.0001818479171
970205 .970046287170875 .000687981873106135 .0109347273152671 -.0003157369105789
705 .992755621719585 0 .0065024 .003175 1 -.00168294495887463 .00628083609286204
 .00292483234576095 .965925826289068 -.0032512 .00563124358556794 .0028810185185
1852 1 -.00459789113398741 .00459789113398741 .002640868040347265 .9659258262890
68 -.00563124358556794 .0032512 .002587037037037035 1 -.00628083609286204 .00168
2944958874635 .00235690373493358 .965925826289068 -.0065024 3981571673387875e-34
 .002293055555555555 1 -.00628083609286204 -.00168294495887463 .0020729394295198
95 .965925826289068 -.00563124358556794 -.0032512 .001999074074074075 1 -.004597
89113398741 -.00459789113398741 .00178897512410621 .965925826289068 -.0032512 -.
00563124358556793 .00170509259259259 1 -.001682944958874635 -.00628083609286204
 .001505010818692525 .965925826289068 -796314334677575e-33 -.0065024 .0014111111
1111111 1 .00168294495887463 -.00628083609286204 .001221046513278842 .9659258262
89068 .0032512 -.00563124358556794 .00111712962962963 1 .0045978911339874 -.0045
9789113398741 .000937082207865158 .965925826289068 .00563124358556793 -.0032512
 .000823148148148147 1 .00628083609286204 -.001682944958874635 .0006531179024514
73 .965925826289068 .0065024 -1194471502016362e-33 .000529166666666666 1 .006280
83609286204 .00168294495887463 .0003691535970377885 .965925826289068 .0056312435
8556794 .0032512 .000235185185185184 1 .00459789113398741 .00459789113398741 851
892916241042e-19 .965925826289068 .0032512 .00563124358556793 -587962962962972e-
19 1 .001872588106335035 .00620228332917282 -.0001818479171970215 .9700462871708
75 .000405347202566561 .0064425551040469 -.0003157369105789715 .992755621719585
 127 4 284 2 2 0 0 127 15 285 3 2 2 2 2 2 2 2 2 2 2 2 3 0 0 128 4 286 0 1 ??128
 15 287 0 .0833333333333333 .1666666666666665 .25 .3333333333333335 .41666666666
66665 .5 .583333333333333 .666666666666667 .75 .833333333333333 .916666666666667
 .989922815353835 ??141 282 200 178 178 163 141 175 245 289 289 157 126 176 FF1
 2 2 25 5 5 2 13 TFF12 4 290 291 292 293 294 125 177 0 1 0 .989922077600637 0 1
 0 .989922077600637 2 BBBBBBBBH???295 0 0 0 163 295 0 0 0 0 0 -1 -0 .98992207760
0637 .00352777777777778 ?1e-6 45 200 290 0 .0065024 0 1 -.00168294495887463 .006
28083609286204 -.0001419821527068422 .965925826289068 -.0032512 .005631243585567
94 -.0002939814814814815 1 -.00459789113398741 .00459789113398741 -.000425946458
1205265 .965925826289068 -.00563124358556793 .0032512 -.000587962962962963 1 -.0
0628083609286204 .001682944958874635 -.000709910763534211 .965925826289068 -.006
5024 3981571673387875e-34 -.000881944444444445 1 -.00628083609286204 -.001682944
95887463 -.000993875068947896 .965925826289068 -.00563124358556794 -.0032512 -.0
01175925925925926 1 -.00459789113398741 -.00459789113398741 -.00127783937436158
 .965925826289068 -.0032512 -.00563124358556793 -.001469907407407408 1 -.0016829
44958874635 -.00628083609286204 -.001561803679775265 .965925826289068 -796314334
677575e-33 -.0065024 -.00176388888888889 1 .00168294495887463 -.0062808360928620
4 -.00184576798518895 .965925826289068 .0032512 -.00563124358556794 -.0020578703
7037037 1 .0045978911339874 -.00459789113398741 -.002129732290602635 .9659258262
89068 .00563124358556793 -.0032512 -.00235185185185185 1 .00628083609286204 -.00
1682944958874635 -.00241369659601632 .965925826289068 .0065024 -1194471502016362
e-33 -.002645833333333335 1 .00628083609286204 .00168294495887463 -.002697660901
430005 .965925826289068 .00563124358556794 .0032512 -.002939814814814815 1 .0045
9789113398741 .00459789113398741 -.002981625206843685 .965925826289068 .0032512
 .00563124358556793 -.003233796296296295 1 .00187260199015709 .00620227757830543
 -.00326174459749799 .970046588830842 .000405376755344276 .00644255026452142 -.0
0346773186053665 .992755164319384 0 .0110363 0 1 -.00285640462746495 .0106602471
9667404 -.0001419821527068422 .965925826289068 -.00551815 .0095577161637862 -.00
02939814814814815 1 -.00780384256920909 .00780384256920909 -.0004259464581205265
 .965925826289068 -.0095577161637862 .00551815 -.000587962962962963 1 -.01066024
719667404 .00285640462746495 -.000709910763534211 .965925826289068 -.0110363 675
778473471497e-33 -.000881944444444445 1 -.01066024719667404 -.00285640462746495
 -.000993875068947896 .965925826289068 -.0095577161637862 -.00551815 -.001175925
925925926 1 -.00780384256920909 -.00780384256920909 -.00127783937436158 .9659258
26289068 -.00551815 -.0095577161637862 -.001469907407407408 1 -.0028564046274649
55 -.01066024719667404 -.001561803679775265 .965925826289068 -1351556946942992e-
33 -.0110363 -.00176388888888889 1 .002856404627464945 -.01066024719667404 -.001
84576798518895 .965925826289068 .00551815 -.0095577161637862 -.00205787037037037
 1 .00780384256920909 -.0078038425692091 -.002129732290602635 .965925826289068 .
0095577161637862 -.00551815 -.00235185185185185 1 .01066024719667404 -.002856404
62746496 -.00241369659601632 .965925826289068 .0110363 -202733542041449e-32 -.00
2645833333333335 1 .01066024719667404 .002856404627464945 -.002697660901430005 .
965925826289068 .0095577161637862 .00551815 -.002939814814814815 1 .007803842569
2091 .00780384256920909 -.002981625206843685 .965925826289068 .00551815 .0095577
161637862 -.003233796296296295 1 .00317830298720022 .01052691253036604 -.0032617
4459749799 .970046588830842 .000688032032019875 .01093471910130686 -.00346773186
053665 .992755164319384 127 4 291 2 2 0 0 127 15 292 3 2 2 2 2 2 2 2 2 2 2 2 3 0
 0 128 4 293 0 1 ??128 15 294 0 .0833333333333333 .1666666666666665 .25 .3333333
333333335 .4166666666666665 .5 .583333333333333 .666666666666667 .75 .8333333333
33333 .916666666666667 .989922077600637 ??141 289 153 175 175 157 141 156 155 15
6 156 153 134 158 0 0 0 0 0 0 +296 297 136 296 1 2 2 2 5 FFF1 298 299 300 135 29
7 2 0 45 4 298 1 .989922077600637 0 .989922077600637 127 2 299 2 2 128 2 300 0 1
 17 41 0 149 43 33 44 36 42 0 0 -16 67 40 0 1e-6 53 70 59 0 0 0 1 141 85 77 85 8
5 83 136 86 2 25 4 13 5 FFT8 301 302 303 135 87 2 304 184 304 0 0 0 0 0 -1 0 .00
65024 0 -0 .989922077600637 .00352777777777778 1e-6 45 100 301 0 .0065024 0 1 -.
00168294495887463 .00628083609286204 -.0001419821527068422 .965925826289068 -.00
32512 .00563124358556794 -.0002939814814814815 1 -.00459789113398741 .0045978911
3398741 -.0004259464581205265 .965925826289068 -.00563124358556793 .0032512 -.00
0587962962962963 1 -.00628083609286204 .001682944958874635 -.000709910763534211
 .965925826289068 -.0065024 3981571673387875e-34 -.000881944444444445 1 -.006280
83609286204 -.00168294495887463 -.000993875068947896 .965925826289068 -.00563124
358556794 -.0032512 -.001175925925925926 1 -.00459789113398741 -.004597891133987
41 -.00127783937436158 .965925826289068 -.0032512 -.00563124358556793 -.00146990
7407407408 1 -.001682944958874635 -.00628083609286204 -.001561803679775265 .9659
25826289068 -796314334677575e-33 -.0065024 -.00176388888888889 1 .00168294495887
463 -.00628083609286204 -.00184576798518895 .965925826289068 .0032512 -.00563124
358556794 -.00205787037037037 1 .0045978911339874 -.00459789113398741 -.00212973
2290602635 .965925826289068 .00563124358556793 -.0032512 -.00235185185185185 1 .
00628083609286204 -.001682944958874635 -.00241369659601632 .965925826289068 .006
5024 -1194471502016362e-33 -.002645833333333335 1 .00628083609286204 .0016829449
5887463 -.002697660901430005 .965925826289068 .00563124358556794 .0032512 -.0029
39814814814815 1 .00459789113398741 .00459789113398741 -.002981625206843685 .965
925826289068 .0032512 .00563124358556793 -.003233796296296295 1 .001872601990157
09 .00620227757830543 -.00326174459749799 .970046588830842 .000405376755344276 .
00644255026452142 -.00346773186053665 .992755164319384 127 13 302 3 2 2 2 2 2 2
 2 2 2 2 2 3 128 13 303 0 .0833333333333333 .1666666666666665 .25 .3333333333333
335 .4166666666666665 .5 .583333333333333 .666666666666667 .75 .833333333333333
 .916666666666667 .989922077600637 19 17 85 0 1 0 9 5 S0 141 22 21 22 22 7 134 2
3 0 0 0 0 0 0 +305 306 136 305 1 2 2 2 5 FFF1 307 308 309 135 306 2 0 45 4 307 .
003400425 -.00317499999978259 .003400425 -3482484483462835e-29 127 2 308 2 2 128
 2 309 0 1 141 20 118 310 311 6 141 310 7 312 20 6 141 311 127 20 312 6 141 312
 136 311 310 6 74 4 CI16 index_map_offset0 0 1 dCCZ20 15 3 0 0 264 2 226 0 0 0 0
 0 0 0 0 0 0 0 0 0 0 0 0 0 80 3 12 313 314 9000 0 1 0 0 1 1 1 1 0 FFTFFFFFFFFFFF
1 1 1 82 1 13 32313 82 1 14 261 79 13 314 TempAxisFaces1 0 
