**ABCDEFGHIJKLMNOPQRSTUVWXYZabcdefghijklmnopqrstuvwxyz**************************
**PARASOLID !"#$%&'()*+,-./:;<=>?@[\]^_`{|}~0123456789**************************
**PART1;
MC=AMD64;
MC_MODEL=Intel64 Family 6 Model 158 Stepping 9, GenuineIntel;
MC_ID=unknown;
OS=Windows_NT;
OS_RELEASE=unknown;
FRU=Parasolid Version 30.0, build 298, 12-15-2017;
APPL=SOLIDWORKS 2018-2018134;
SITE=;
USER=unknown;
FORMAT=text;
GUISE=transmit;
KEY=AA-1502-3;
FILE=AA-1502-3.x_t;
DATE=Thu Feb  7 08:19:42 2019;
**PART2;
SCH=SCH_3000298_30000;
USFLD_SIZE=0;
**PART3;
**END_OF_HEADER*****************************************************************
T51 : TRANSMIT FILE created by modeller version 300029823 SCH_3000298_30000_1300
6205 0 12 33 CCCCCCI4 mesh1006 0 I8 polyline1008 0 CCCCCCCDI5 owner1040 0 CCCCCC
I13 boundary_mesh1006 0 I17 boundary_polyline1008 0 CCCA16 index_map_offset0 0 1
 dA9 index_map82 0 A17 node_id_index_map82 0 A20 schema_embedding_map82 0 A5 chi
ld12 0 A14 lowest_node_id0 0 1 dZ1 130 2 3 0 0 0 0 0 0 1e3 1e-8 0 4 0 1 0 1 1 5
 6 7 0 0 0 8 9 0 0 0 0 0 0 0 81 255 2 2 104 10 1 0 0 0 0 11 0 70 11 CI9 list_typ
e0 0 1 uI10 notransmit0 0 1 lCCCDCCDI12 finger_index0 0 1 dI12 finger_block1012
 0 CZ3 0 4 T1 0 0 3 20 1 12 12 13 255 5 29 0 1 0 13 0 0 14 0 51 255 6 28 0 13 15
 0 0 +0 0 -.0381 0 0 1 .01909445 1 0 0 31 255 7 23 0 16 17 0 0 +0 0 0 0 0 1 1 0
 0 .01909445 19 8 CCCCCCCA5 owner12 0 Z8 7 0 1 14 0 18 V0 16 255 9 4 0 ?19 0 16
 17 0 0 1 17 255 19 0 20 19 19 0 21 9 0 0 +16 16 18 0 ?22 9 23 7 0 0 1 31 17 5 0
 9 24 7 0 +0 0 -.0381 0 0 1 1 0 0 .01909445 31 24 71 0 25 26 17 0 +0 0 0 0 0 1 1
 0 0 .0143129 16 25 52 0 ?27 23 0 24 0 0 1 31 26 72 0 23 0 24 0 +0 0 -.0381 0 0
 1 1 0 0 .0143129 16 23 49 0 ?28 16 25 26 0 0 1 17 28 0 29 28 28 0 30 23 0 0 +15
 255 29 43 0 28 31 32 17 30 0 33 30 30 0 28 23 0 0 -15 33 58 0 30 34 35 14 255 3
4 55 36 ?0 37 33 5 38 -0 0 0 37 18 15 35 59 0 27 34 0 17 27 0 35 27 27 0 39 25 0
 0 +17 39 0 40 39 39 0 27 25 0 0 -15 40 38 0 39 37 41 14 37 16 42 ?34 31 40 5 15
 +0 0 34 31 18 15 41 17 0 22 37 0 17 22 0 41 22 22 0 43 16 0 0 +17 43 0 44 43 43
 0 22 16 0 0 -15 44 26 0 43 13 0 14 13 25 45 ?31 0 20 5 6 +0 0 31 0 18 81 1 45 1
29 46 13 47 0 42 48 49 14 31 1 48 ?37 13 29 5 50 -0 0 37 13 18 15 20 24 0 19 13
 44 13 18 8 0 0 0 0 0 0 8 13 81 1 48 130 46 31 51 0 45 0 52 50 255 50 2 0 31 38
 15 0 +0 0 -.0381 0 0 1 1 0 0 51 38 68 0 34 0 50 0 +0 0 -.0381 0 0 1 .0143129 1
 0 0 50 15 22 0 37 50 6 0 +0 0 0 0 0 1 1 0 0 80 255 1 46 53 54 9000 1 1 1 1 1 1
 1 1 0 FFFFTFTFFFFFFF1 81 1 51 114 55 31 0 48 47 56 57 82 255 1 52 89063527 80 1
 55 0 58 8001 0 0 0 0 3 5 0 0 0 FFFFTFTFFFFFFF2 81 1 47 113 55 13 0 45 0 51 59 8
1 1 56 115 55 37 0 42 51 60 61 83 255 3 57 .619607843137255 .407843137254902 .2
 81 1 42 128 46 37 56 0 36 45 62 81 1 60 116 55 34 0 36 56 0 63 83 3 61 .6196078
43137255 .407843137254902 .2 81 1 36 127 46 34 60 0 0 42 64 83 3 63 .61960784313
7255 .407843137254902 .2 82 1 64 95027303 82 1 62 90767463 83 3 59 .619607843137
255 .407843137254902 .2 79 255 15 58 SDL/TYSA_COLOUR79 14 54 SWEntUnchanged82 1
 49 91029607 15 32 3 0 21 31 0 17 21 0 32 21 21 0 19 9 0 0 -19 14 30 0 1 0 8 5 S
0 74 4 CI16 index_map_offset0 0 1 dCCZ20 12 3 0 0 48 2 60 0 0 0 0 0 0 0 0 0 0 0
 0 0 0 0 0 0 80 2 10 65 66 8004 0 0 0 0 3 5 0 0 0 FFTFFFFFFFFFFF2 3 83 1 11 8780
 79 16 66 SDL/TYSA_DENSITY1 0 
